# xmcd
#
# Track frame offsets:
#	150
#	12408
#	31030
#	40904
#	56638
#	72626
#	96191
#	113679
#	132263
#	158755
#	169208
#	187097
#	208198
#	224525
#	241146
#	252145
#
# Disc length: 3462 seconds
#
# Revision: 1
# Processed by: cddbd v1.5.2PL0 Copyright (c) Steve Scherf et al.
# Submitted via: audiograbber 1.83.01
#
DISCID=e60d8410
DTITLE=Rüdiger Helbig - Back To The Banjo
DYEAR=1900
DGENRE=
TTITLE0=Goin´ Bluegrass
TTITLE1=Jimbo
TTITLE2=Grassland
TTITLE3=Wild Blossoms
TTITLE4=Cherry Hill
TTITLE5=City Desert
TTITLE6=Flaxyhaired Girl
TTITLE7=Back To The Banjo
TTITLE8=Pull The Shade Down
TTITLE9=Byron´s Hoedown
TTITLE10=Back To The Roots
TTITLE11=On The Road To Nashville
TTITLE12=Afternoon Delight
TTITLE13=Memory Of The Past
TTITLE14=Wide Open Country
TTITLE15=Morning Dew
EXTD=
EXTT0=
EXTT1=
EXTT2=
EXTT3=
EXTT4=
EXTT5=
EXTT6=
EXTT7=
EXTT8=
EXTT9=
EXTT10=
EXTT11=
EXTT12=
EXTT13=
EXTT14=
EXTT15=
PLAYORDER=
